<?xml version="1.0" encoding="UTF-8" standalone="no"?>
<!DOCTYPE svg PUBLIC "-//W3C//DTD SVG 1.1//EN" "http://www.w3.org/Graphics/SVG/1.1/DTD/svg11.dtd">
<svg width="100%" height="100%" viewBox="0 0 440 120" version="1.1" xmlns="http://www.w3.org/2000/svg" xmlns:xlink="http://www.w3.org/1999/xlink" xml:space="preserve" xmlns:serif="http://www.serif.com/" style="fill-rule:evenodd;clip-rule:evenodd;stroke-linejoin:round;stroke-miterlimit:2;">
    <g id="Body">
        <g id="Body_Outter" transform="matrix(1,0,0,1,-30,0)">
            <path d="M383.779,102.125C369.308,102.125 355.528,95.245 343.369,89.176C333.614,84.305 324.399,79.5 316.791,79.5L290,79.5L290,41L316.791,41C324.378,41 333.585,36.557 343.333,31.456C355.498,25.09 369.286,17.875 383.779,17.875C410.461,17.875 432.169,36.772 432.169,60C432.169,83.228 410.461,102.125 383.779,102.125Z" style="fill:rgb(29,29,29);fill-rule:nonzero;"/>
        </g>
        <g id="Body_Inner" transform="matrix(1,0,0,1,-30,0)">
            <path d="M383.779,97.875C370.311,97.875 357.008,91.234 345.271,85.375L343.849,84.665C334.172,79.823 325.033,75.25 316.79,75.25L290,75.25L290,45.25L316.79,45.25C325.426,45.25 335.205,40.506 345.303,35.222C357.034,29.083 370.33,22.125 383.779,22.125C408.118,22.125 427.919,39.116 427.919,60C427.919,80.884 408.118,97.875 383.779,97.875Z" style="fill:rgb(249,67,16);fill-rule:nonzero;"/>
        </g>
    </g>
    <circle id="Circle_Outter" cx="220" cy="60" r="52.5" style="fill:rgb(29,29,29);"/>
    <circle id="Circle_Middle" cx="220" cy="60" r="48" style="fill:rgb(245,237,220);"/>
    <circle id="Circle_Inner" cx="220" cy="60" r="39" style="fill:rgb(249,67,16);"/>
</svg>
