<?xml version="1.0" encoding="UTF-8" standalone="no"?>
<!DOCTYPE svg PUBLIC "-//W3C//DTD SVG 1.1//EN" "http://www.w3.org/Graphics/SVG/1.1/DTD/svg11.dtd">
<svg width="100%" height="100%" viewBox="0 0 105 105" version="1.1" xmlns="http://www.w3.org/2000/svg" xmlns:xlink="http://www.w3.org/1999/xlink" xml:space="preserve" xmlns:serif="http://www.serif.com/" style="fill-rule:evenodd;clip-rule:evenodd;stroke-miterlimit:1.5;">
    <g id="don">
        <circle id="Circle_Outter" cx="52.5" cy="52.5" r="52.5" style="fill:rgb(29,29,29);"/>
        <circle id="Circle_Middle" cx="52.5" cy="52.5" r="48" style="fill:rgb(103,58,183);"/>
        <circle id="Circle_Inner" cx="52.5" cy="52.5" r="39" style="fill:rgb(245,237,220);"/>
        <g id="Clock">
            <g id="Ticks">
                <path d="M53,85L53,77" style="fill:none;stroke:black;stroke-width:1.5px;"/>
                <g transform="matrix(1,0,0,1,0,-57)">
                    <path d="M53,85L53,77" style="fill:none;stroke:black;stroke-width:1.5px;"/>
                </g>
                <g transform="matrix(6.12323e-17,-1,1,6.12323e-17,0.5,105.5)">
                    <path d="M53,85L53,77" style="fill:none;stroke:black;stroke-width:1.5px;"/>
                </g>
                <g transform="matrix(6.12323e-17,-1,1,6.12323e-17,-56.5,105.5)">
                    <path d="M53,85L53,77" style="fill:none;stroke:black;stroke-width:1.5px;"/>
                </g>
                <g transform="matrix(0.866025,-0.5,0.5,0.866025,-19.1493,33.5337)">
                    <path d="M53,85L53,77" style="fill:none;stroke:black;stroke-width:1.5px;"/>
                </g>
                <g transform="matrix(0.866025,-0.5,0.5,0.866025,-47.6493,-15.8298)">
                    <path d="M53,85L53,77" style="fill:none;stroke:black;stroke-width:1.5px;"/>
                </g>
                <g transform="matrix(-0.5,-0.866025,0.866025,-0.5,34.0337,124.649)">
                    <path d="M53,85L53,77" style="fill:none;stroke:black;stroke-width:1.5px;"/>
                </g>
                <g transform="matrix(-0.5,-0.866025,0.866025,-0.5,-15.3298,153.149)">
                    <path d="M53,85L53,77" style="fill:none;stroke:black;stroke-width:1.5px;"/>
                </g>
                <g transform="matrix(0.5,-0.866025,0.866025,0.5,-18.9663,72.1493)">
                    <path d="M53,85L53,77" style="fill:none;stroke:black;stroke-width:1.5px;"/>
                </g>
                <g transform="matrix(0.5,-0.866025,0.866025,0.5,-68.3298,43.6493)">
                    <path d="M53,85L53,77" style="fill:none;stroke:black;stroke-width:1.5px;"/>
                </g>
                <g transform="matrix(-0.866025,-0.5,0.5,-0.866025,72.6493,124.466)">
                    <path d="M53,85L53,77" style="fill:none;stroke:black;stroke-width:1.5px;"/>
                </g>
                <g transform="matrix(-0.866025,-0.5,0.5,-0.866025,44.1493,173.83)">
                    <path d="M53,85L53,77" style="fill:none;stroke:black;stroke-width:1.5px;"/>
                </g>
            </g>
            <path id="Clock_Inner" d="M52.5,13.5C74.025,13.5 91.5,30.975 91.5,52.5C91.5,74.025 74.025,91.5 52.5,91.5C30.975,91.5 13.5,74.025 13.5,52.5C13.5,30.975 30.975,13.5 52.5,13.5ZM52.5,18.3C33.625,18.3 18.3,33.625 18.3,52.5C18.3,71.375 33.625,86.7 52.5,86.7C71.375,86.7 86.7,71.375 86.7,52.5C86.7,33.625 71.375,18.3 52.5,18.3Z"/>
            <g transform="matrix(1.17647,0,0,1,-9.35294,1.5)">
                <path d="M53,51L70,51" style="fill:none;stroke:rgb(255,0,0);stroke-width:2.29px;"/>
            </g>
            <g transform="matrix(1,0,0,1,0,1.5)">
                <path d="M44,59L53,51L53,28" style="fill:none;stroke:black;stroke-width:3px;"/>
            </g>
        </g>
    </g>
</svg>
